<mxfile host="app.diagrams.net" modified="2023-04-13T17:38:32.299Z" agent="Mozilla/5.0 (Windows NT 10.0; Win64; x64) AppleWebKit/537.36 (KHTML, like Gecko) Chrome/111.0.0.0 Safari/537.36" etag="3gazyvSN2z55B4a7LZbv" version="21.1.7" type="device">
  <diagram name="Страница 1" id="NgvC6o9vfAIESXawCFS8">
    <mxGraphModel dx="875" dy="478" grid="1" gridSize="10" guides="1" tooltips="1" connect="1" arrows="1" fold="1" page="1" pageScale="1" pageWidth="827" pageHeight="1169" math="0" shadow="0">
      <root>
        <mxCell id="0" />
        <mxCell id="1" parent="0" />
        <mxCell id="3XL1Hi_FT5605Prh-7D4-1" value="Пользователь" style="shape=umlActor;verticalLabelPosition=bottom;verticalAlign=top;html=1;outlineConnect=0;" vertex="1" parent="1">
          <mxGeometry x="220" y="30" width="30" height="60" as="geometry" />
        </mxCell>
        <mxCell id="3XL1Hi_FT5605Prh-7D4-2" value="Инкассатор" style="shape=umlActor;verticalLabelPosition=bottom;verticalAlign=top;html=1;outlineConnect=0;" vertex="1" parent="1">
          <mxGeometry x="400" y="20" width="30" height="60" as="geometry" />
        </mxCell>
        <mxCell id="3XL1Hi_FT5605Prh-7D4-3" value="Сервис" style="shape=umlActor;verticalLabelPosition=bottom;verticalAlign=top;html=1;outlineConnect=0;" vertex="1" parent="1">
          <mxGeometry x="580" y="30" width="30" height="60" as="geometry" />
        </mxCell>
        <mxCell id="3XL1Hi_FT5605Prh-7D4-4" value="Авторизация" style="ellipse;whiteSpace=wrap;html=1;" vertex="1" parent="1">
          <mxGeometry x="150" y="230" width="100" height="70" as="geometry" />
        </mxCell>
        <mxCell id="3XL1Hi_FT5605Prh-7D4-6" value="" style="endArrow=none;html=1;rounded=0;" edge="1" parent="1" source="3XL1Hi_FT5605Prh-7D4-1">
          <mxGeometry width="50" height="50" relative="1" as="geometry">
            <mxPoint x="230" y="260" as="sourcePoint" />
            <mxPoint x="220" y="230" as="targetPoint" />
          </mxGeometry>
        </mxCell>
        <mxCell id="3XL1Hi_FT5605Prh-7D4-8" value="" style="endArrow=classic;html=1;rounded=0;entryX=1;entryY=0.3333333333333333;entryDx=0;entryDy=0;entryPerimeter=0;exitX=0;exitY=0.3333333333333333;exitDx=0;exitDy=0;exitPerimeter=0;" edge="1" parent="1" source="3XL1Hi_FT5605Prh-7D4-2" target="3XL1Hi_FT5605Prh-7D4-1">
          <mxGeometry width="50" height="50" relative="1" as="geometry">
            <mxPoint x="230" y="260" as="sourcePoint" />
            <mxPoint x="280" y="210" as="targetPoint" />
          </mxGeometry>
        </mxCell>
        <mxCell id="3XL1Hi_FT5605Prh-7D4-9" value="" style="endArrow=classic;html=1;rounded=0;" edge="1" parent="1" source="3XL1Hi_FT5605Prh-7D4-3" target="3XL1Hi_FT5605Prh-7D4-2">
          <mxGeometry width="50" height="50" relative="1" as="geometry">
            <mxPoint x="230" y="260" as="sourcePoint" />
            <mxPoint x="280" y="210" as="targetPoint" />
          </mxGeometry>
        </mxCell>
        <mxCell id="3XL1Hi_FT5605Prh-7D4-12" value="" style="endArrow=none;html=1;rounded=0;exitX=0.686;exitY=0.049;exitDx=0;exitDy=0;exitPerimeter=0;entryX=0;entryY=0.714;entryDx=0;entryDy=0;entryPerimeter=0;" edge="1" parent="1" source="3XL1Hi_FT5605Prh-7D4-13" target="3XL1Hi_FT5605Prh-7D4-4">
          <mxGeometry width="50" height="50" relative="1" as="geometry">
            <mxPoint x="170" y="380" as="sourcePoint" />
            <mxPoint x="170" y="380" as="targetPoint" />
          </mxGeometry>
        </mxCell>
        <mxCell id="3XL1Hi_FT5605Prh-7D4-13" value="Пополнение баланса" style="ellipse;whiteSpace=wrap;html=1;" vertex="1" parent="1">
          <mxGeometry y="290" width="110" height="70" as="geometry" />
        </mxCell>
        <mxCell id="3XL1Hi_FT5605Prh-7D4-14" value="" style="endArrow=none;html=1;rounded=0;entryX=0.363;entryY=0.975;entryDx=0;entryDy=0;entryPerimeter=0;" edge="1" parent="1" target="3XL1Hi_FT5605Prh-7D4-4">
          <mxGeometry width="50" height="50" relative="1" as="geometry">
            <mxPoint x="180" y="330" as="sourcePoint" />
            <mxPoint x="250" y="380" as="targetPoint" />
          </mxGeometry>
        </mxCell>
        <mxCell id="3XL1Hi_FT5605Prh-7D4-15" value="Выдача денег" style="ellipse;whiteSpace=wrap;html=1;" vertex="1" parent="1">
          <mxGeometry x="130" y="332.5" width="110" height="75" as="geometry" />
        </mxCell>
        <mxCell id="3XL1Hi_FT5605Prh-7D4-16" value="" style="endArrow=none;html=1;rounded=0;entryX=0.972;entryY=0.683;entryDx=0;entryDy=0;entryPerimeter=0;" edge="1" parent="1" target="3XL1Hi_FT5605Prh-7D4-4">
          <mxGeometry width="50" height="50" relative="1" as="geometry">
            <mxPoint x="380" y="310" as="sourcePoint" />
            <mxPoint x="310" y="330" as="targetPoint" />
          </mxGeometry>
        </mxCell>
        <mxCell id="3XL1Hi_FT5605Prh-7D4-17" value="Оплата различных услуг" style="ellipse;whiteSpace=wrap;html=1;" vertex="1" parent="1">
          <mxGeometry x="360" y="300" width="110" height="70" as="geometry" />
        </mxCell>
        <mxCell id="3XL1Hi_FT5605Prh-7D4-18" value="Демонстрация счёта" style="ellipse;whiteSpace=wrap;html=1;" vertex="1" parent="1">
          <mxGeometry x="250" y="330" width="110" height="77.5" as="geometry" />
        </mxCell>
        <mxCell id="3XL1Hi_FT5605Prh-7D4-19" value="" style="endArrow=none;html=1;rounded=0;exitX=0;exitY=0;exitDx=0;exitDy=0;entryX=0.937;entryY=0.769;entryDx=0;entryDy=0;entryPerimeter=0;" edge="1" parent="1" source="3XL1Hi_FT5605Prh-7D4-18" target="3XL1Hi_FT5605Prh-7D4-4">
          <mxGeometry width="50" height="50" relative="1" as="geometry">
            <mxPoint x="260" y="370" as="sourcePoint" />
            <mxPoint x="310" y="320" as="targetPoint" />
          </mxGeometry>
        </mxCell>
        <mxCell id="3XL1Hi_FT5605Prh-7D4-20" value="Через nfc" style="ellipse;whiteSpace=wrap;html=1;" vertex="1" parent="1">
          <mxGeometry x="100" y="150" width="90" height="50" as="geometry" />
        </mxCell>
        <mxCell id="3XL1Hi_FT5605Prh-7D4-21" value="Через кардридер" style="ellipse;whiteSpace=wrap;html=1;" vertex="1" parent="1">
          <mxGeometry y="190" width="90" height="50" as="geometry" />
        </mxCell>
        <mxCell id="3XL1Hi_FT5605Prh-7D4-22" value="" style="endArrow=none;dashed=1;html=1;rounded=0;exitX=0.01;exitY=0.423;exitDx=0;exitDy=0;exitPerimeter=0;entryX=1;entryY=1;entryDx=0;entryDy=0;" edge="1" parent="1" source="3XL1Hi_FT5605Prh-7D4-4" target="3XL1Hi_FT5605Prh-7D4-21">
          <mxGeometry width="50" height="50" relative="1" as="geometry">
            <mxPoint x="260" y="150" as="sourcePoint" />
            <mxPoint x="310" y="100" as="targetPoint" />
          </mxGeometry>
        </mxCell>
        <mxCell id="3XL1Hi_FT5605Prh-7D4-23" value="" style="endArrow=none;dashed=1;html=1;rounded=0;exitX=0.198;exitY=0.108;exitDx=0;exitDy=0;exitPerimeter=0;entryX=0.61;entryY=1.034;entryDx=0;entryDy=0;entryPerimeter=0;" edge="1" parent="1" source="3XL1Hi_FT5605Prh-7D4-4" target="3XL1Hi_FT5605Prh-7D4-20">
          <mxGeometry width="50" height="50" relative="1" as="geometry">
            <mxPoint x="260" y="150" as="sourcePoint" />
            <mxPoint x="310" y="100" as="targetPoint" />
          </mxGeometry>
        </mxCell>
        <mxCell id="3XL1Hi_FT5605Prh-7D4-24" value="Проверка" style="ellipse;whiteSpace=wrap;html=1;" vertex="1" parent="1">
          <mxGeometry x="10" y="70" width="90" height="60" as="geometry" />
        </mxCell>
        <mxCell id="3XL1Hi_FT5605Prh-7D4-25" value="" style="endArrow=none;dashed=1;html=1;rounded=0;exitX=0.5;exitY=0;exitDx=0;exitDy=0;entryX=0;entryY=1;entryDx=0;entryDy=0;" edge="1" parent="1" source="3XL1Hi_FT5605Prh-7D4-21" target="3XL1Hi_FT5605Prh-7D4-24">
          <mxGeometry width="50" height="50" relative="1" as="geometry">
            <mxPoint x="260" y="150" as="sourcePoint" />
            <mxPoint x="310" y="100" as="targetPoint" />
          </mxGeometry>
        </mxCell>
        <mxCell id="3XL1Hi_FT5605Prh-7D4-26" value="" style="endArrow=none;dashed=1;html=1;rounded=0;exitX=0.261;exitY=-0.014;exitDx=0;exitDy=0;exitPerimeter=0;entryX=0.942;entryY=0.845;entryDx=0;entryDy=0;entryPerimeter=0;" edge="1" parent="1" source="3XL1Hi_FT5605Prh-7D4-20" target="3XL1Hi_FT5605Prh-7D4-24">
          <mxGeometry width="50" height="50" relative="1" as="geometry">
            <mxPoint x="260" y="150" as="sourcePoint" />
            <mxPoint x="310" y="100" as="targetPoint" />
          </mxGeometry>
        </mxCell>
        <mxCell id="3XL1Hi_FT5605Prh-7D4-27" value="" style="endArrow=none;dashed=1;html=1;rounded=0;exitX=0.327;exitY=1.015;exitDx=0;exitDy=0;exitPerimeter=0;" edge="1" parent="1" source="3XL1Hi_FT5605Prh-7D4-17" target="3XL1Hi_FT5605Prh-7D4-28">
          <mxGeometry width="50" height="50" relative="1" as="geometry">
            <mxPoint x="260" y="350" as="sourcePoint" />
            <mxPoint x="40" y="420" as="targetPoint" />
          </mxGeometry>
        </mxCell>
        <mxCell id="3XL1Hi_FT5605Prh-7D4-28" value="Пополнение баланса телефона" style="ellipse;whiteSpace=wrap;html=1;" vertex="1" parent="1">
          <mxGeometry x="210" y="440" width="120" height="62.5" as="geometry" />
        </mxCell>
        <mxCell id="3XL1Hi_FT5605Prh-7D4-30" value="Оплата штрафа" style="ellipse;whiteSpace=wrap;html=1;" vertex="1" parent="1">
          <mxGeometry x="340" y="440" width="120" height="70" as="geometry" />
        </mxCell>
        <mxCell id="3XL1Hi_FT5605Prh-7D4-31" value="" style="endArrow=none;dashed=1;html=1;rounded=0;entryX=0.5;entryY=1;entryDx=0;entryDy=0;exitX=0.572;exitY=-0.031;exitDx=0;exitDy=0;exitPerimeter=0;" edge="1" parent="1" source="3XL1Hi_FT5605Prh-7D4-30" target="3XL1Hi_FT5605Prh-7D4-17">
          <mxGeometry width="50" height="50" relative="1" as="geometry">
            <mxPoint x="260" y="350" as="sourcePoint" />
            <mxPoint x="310" y="300" as="targetPoint" />
          </mxGeometry>
        </mxCell>
        <mxCell id="3XL1Hi_FT5605Prh-7D4-32" value="Выход из учётной записи" style="ellipse;whiteSpace=wrap;html=1;" vertex="1" parent="1">
          <mxGeometry x="270" y="170" width="120" height="70" as="geometry" />
        </mxCell>
        <mxCell id="3XL1Hi_FT5605Prh-7D4-33" value="" style="endArrow=none;html=1;rounded=0;" edge="1" parent="1" source="3XL1Hi_FT5605Prh-7D4-4" target="3XL1Hi_FT5605Prh-7D4-32">
          <mxGeometry width="50" height="50" relative="1" as="geometry">
            <mxPoint x="260" y="210" as="sourcePoint" />
            <mxPoint x="310" y="160" as="targetPoint" />
          </mxGeometry>
        </mxCell>
        <mxCell id="3XL1Hi_FT5605Prh-7D4-34" value="Оплата налогов" style="ellipse;whiteSpace=wrap;html=1;" vertex="1" parent="1">
          <mxGeometry x="480" y="436.25" width="110" height="70" as="geometry" />
        </mxCell>
        <mxCell id="3XL1Hi_FT5605Prh-7D4-35" value="" style="endArrow=none;dashed=1;html=1;rounded=0;exitX=1;exitY=1;exitDx=0;exitDy=0;" edge="1" parent="1" source="3XL1Hi_FT5605Prh-7D4-17" target="3XL1Hi_FT5605Prh-7D4-34">
          <mxGeometry width="50" height="50" relative="1" as="geometry">
            <mxPoint x="260" y="410" as="sourcePoint" />
            <mxPoint x="310" y="360" as="targetPoint" />
          </mxGeometry>
        </mxCell>
        <mxCell id="3XL1Hi_FT5605Prh-7D4-36" value="Оплата остальных услуг" style="ellipse;whiteSpace=wrap;html=1;" vertex="1" parent="1">
          <mxGeometry x="570" y="380" width="110" height="70" as="geometry" />
        </mxCell>
        <mxCell id="3XL1Hi_FT5605Prh-7D4-37" value="" style="endArrow=none;dashed=1;html=1;rounded=0;entryX=1;entryY=0.714;entryDx=0;entryDy=0;entryPerimeter=0;exitX=0;exitY=0.429;exitDx=0;exitDy=0;exitPerimeter=0;" edge="1" parent="1" source="3XL1Hi_FT5605Prh-7D4-36" target="3XL1Hi_FT5605Prh-7D4-17">
          <mxGeometry width="50" height="50" relative="1" as="geometry">
            <mxPoint x="410" y="410" as="sourcePoint" />
            <mxPoint x="460" y="360" as="targetPoint" />
          </mxGeometry>
        </mxCell>
        <mxCell id="3XL1Hi_FT5605Prh-7D4-38" value="Перевод на другой счёт" style="ellipse;whiteSpace=wrap;html=1;" vertex="1" parent="1">
          <mxGeometry x="10" y="407.5" width="120" height="72.5" as="geometry" />
        </mxCell>
        <mxCell id="3XL1Hi_FT5605Prh-7D4-39" value="" style="endArrow=none;html=1;rounded=0;exitX=0.559;exitY=-0.008;exitDx=0;exitDy=0;exitPerimeter=0;entryX=0;entryY=1;entryDx=0;entryDy=0;" edge="1" parent="1" source="3XL1Hi_FT5605Prh-7D4-38" target="3XL1Hi_FT5605Prh-7D4-4">
          <mxGeometry width="50" height="50" relative="1" as="geometry">
            <mxPoint x="320" y="390" as="sourcePoint" />
            <mxPoint x="140" y="320" as="targetPoint" />
          </mxGeometry>
        </mxCell>
        <mxCell id="3XL1Hi_FT5605Prh-7D4-40" value="Открытие сейфа" style="ellipse;whiteSpace=wrap;html=1;" vertex="1" parent="1">
          <mxGeometry x="430" y="140" width="116.5" height="70" as="geometry" />
        </mxCell>
        <mxCell id="3XL1Hi_FT5605Prh-7D4-41" value="" style="endArrow=none;html=1;rounded=0;entryX=0.381;entryY=-0.017;entryDx=0;entryDy=0;entryPerimeter=0;" edge="1" parent="1" source="3XL1Hi_FT5605Prh-7D4-2" target="3XL1Hi_FT5605Prh-7D4-40">
          <mxGeometry width="50" height="50" relative="1" as="geometry">
            <mxPoint x="320" y="190" as="sourcePoint" />
            <mxPoint x="370" y="140" as="targetPoint" />
          </mxGeometry>
        </mxCell>
        <mxCell id="3XL1Hi_FT5605Prh-7D4-42" value="Извлечение/&lt;br&gt;пополнение купюр" style="ellipse;whiteSpace=wrap;html=1;" vertex="1" parent="1">
          <mxGeometry x="470" y="240" width="110" height="67.5" as="geometry" />
        </mxCell>
        <mxCell id="3XL1Hi_FT5605Prh-7D4-43" value="" style="endArrow=none;html=1;rounded=0;entryX=0.627;entryY=1;entryDx=0;entryDy=0;entryPerimeter=0;exitX=0.401;exitY=-0.012;exitDx=0;exitDy=0;exitPerimeter=0;" edge="1" parent="1" source="3XL1Hi_FT5605Prh-7D4-42" target="3XL1Hi_FT5605Prh-7D4-40">
          <mxGeometry width="50" height="50" relative="1" as="geometry">
            <mxPoint x="320" y="190" as="sourcePoint" />
            <mxPoint x="370" y="140" as="targetPoint" />
          </mxGeometry>
        </mxCell>
        <mxCell id="3XL1Hi_FT5605Prh-7D4-44" value="Доступ к ос и по" style="ellipse;whiteSpace=wrap;html=1;" vertex="1" parent="1">
          <mxGeometry x="565" y="150" width="115" height="75" as="geometry" />
        </mxCell>
        <mxCell id="3XL1Hi_FT5605Prh-7D4-45" value="" style="endArrow=none;html=1;rounded=0;" edge="1" parent="1" source="3XL1Hi_FT5605Prh-7D4-44" target="3XL1Hi_FT5605Prh-7D4-3">
          <mxGeometry width="50" height="50" relative="1" as="geometry">
            <mxPoint x="520" y="180" as="sourcePoint" />
            <mxPoint x="570" y="130" as="targetPoint" />
          </mxGeometry>
        </mxCell>
        <mxCell id="3XL1Hi_FT5605Prh-7D4-46" value="Доступ к железу" style="ellipse;whiteSpace=wrap;html=1;" vertex="1" parent="1">
          <mxGeometry x="707" y="155" width="103" height="70" as="geometry" />
        </mxCell>
        <mxCell id="3XL1Hi_FT5605Prh-7D4-47" value="" style="endArrow=none;html=1;rounded=0;" edge="1" parent="1" source="3XL1Hi_FT5605Prh-7D4-46" target="3XL1Hi_FT5605Prh-7D4-3">
          <mxGeometry width="50" height="50" relative="1" as="geometry">
            <mxPoint x="520" y="180" as="sourcePoint" />
            <mxPoint x="570" y="130" as="targetPoint" />
          </mxGeometry>
        </mxCell>
      </root>
    </mxGraphModel>
  </diagram>
</mxfile>
